<svg width="37" height="52" viewBox="0 0 37 52" fill="none" xmlns="http://www.w3.org/2000/svg">
<path d="M12.1673 47.046C11.481 49.8382 9.06308 51.6789 6.20843 51.6789C2.51143 51.6789 0 48.7307 0 45.5485C0 42.5379 2.32421 39.4492 6.1772 39.4492C10.0302 39.4492 11.8553 42.3039 12.1673 44.1446H9.01626C8.68868 43.271 7.7839 42.0855 6.16159 42.0855C4.1337 42.0855 3.01062 43.8482 3.01062 45.5329C3.01062 47.3112 4.22731 49.0427 6.1772 49.0427C8.1271 49.0427 8.82907 47.4672 9.01626 47.046H12.1673Z" fill="#000000"/>
<path d="M13.1484 39.667H19.8248V42.3033H16.1591V44.144H19.7156V46.7958H16.1591V48.8081H19.8248V51.46H13.1484V39.667Z" fill="#000000"/>
<path d="M23.8036 48.8081H25.2232C25.4104 48.8081 25.8003 48.8081 26.1123 48.6677C26.4399 48.5273 26.7207 48.2309 26.7207 47.685C26.7207 47.1702 26.471 46.9206 26.1435 46.7958C25.8471 46.671 25.4572 46.671 25.2232 46.671H23.8036V48.8237V48.8081ZM23.8036 44.144H24.8644C25.0672 44.144 25.3947 44.144 25.6599 44.0348C25.9251 43.91 26.1435 43.6604 26.1435 43.208C26.1435 42.7557 25.9407 42.5373 25.6755 42.4281C25.4259 42.3189 25.0984 42.3189 24.8644 42.3189H23.8036V44.1596V44.144ZM20.793 39.667H25.1296C26.3463 39.667 27.3135 39.9322 27.9842 40.4626C28.6706 40.9773 29.0294 41.7573 29.0294 42.7556C29.0294 43.6604 28.6082 44.5963 27.6566 45.1267C29.5597 45.7975 29.6065 47.373 29.6065 47.8722C29.6065 48.8081 29.2321 49.8532 28.5302 50.446C27.4538 51.3508 26.6582 51.46 24.6771 51.46H20.8086V39.667H20.793Z" fill="#000000"/>
<path d="M30.4648 39.667H33.4755V48.8081H36.9697V51.46H30.4648V39.667Z" fill="#000000"/>
<path d="M30.1989 16.2061C28.1554 14.8334 25.9715 14.069 24.0528 13.3983C22.8049 12.9615 21.6349 12.5403 20.699 12.0411C19.7006 11.4952 19.0767 10.8868 18.7179 10.1225C18.6087 9.8729 18.5151 9.62331 18.4527 9.34252C19.919 8.95255 21.401 8.70294 22.8205 8.64054C24.162 8.57815 25.4412 8.68734 26.6111 8.93693C27.7498 9.18652 28.795 9.56088 29.7309 10.0913L29.8245 10.138L29.9492 10.2161L30.0117 10.2473C31.4156 12.3999 32.2268 14.9738 32.2268 17.7348C32.2268 17.7816 32.2268 17.8284 32.2268 17.8752C31.6028 17.2668 30.9164 16.7209 30.1833 16.2217L30.1989 16.2061ZM24.9576 29.871C23.0389 27.5623 21.2918 25.0352 19.7787 22.3678C19.8879 22.2898 19.997 22.2274 20.1062 22.1494C21.0109 21.5878 21.9469 21.0574 22.8985 20.5583L23.2572 20.3711L23.4444 20.2775L23.6316 20.1839L23.9905 20.0123L24.3648 19.8407C24.4896 19.7783 24.6144 19.716 24.7392 19.6692L25.1135 19.4975C25.2383 19.4351 25.3631 19.3884 25.4879 19.326C25.6127 19.2636 25.7375 19.2168 25.8623 19.17L26.2366 19.014L26.6111 18.858L26.7983 18.78L26.9855 18.702L27.3754 18.546C27.8902 18.3432 28.405 18.1716 28.9354 17.9844C28.6546 17.9844 28.3737 17.9844 28.1086 18.0156C27.8278 18.0312 27.547 18.0624 27.2819 18.0936C27.1415 18.0936 27.001 18.1248 26.8606 18.1404C26.7982 18.1404 26.7202 18.156 26.6578 18.1716L26.4551 18.2028C26.3147 18.2184 26.1743 18.2496 26.0339 18.2652L25.6127 18.3432C25.4723 18.3588 25.3319 18.39 25.2071 18.4212L25.0043 18.468C25.0043 18.468 24.8639 18.4992 24.8015 18.5148C24.5208 18.5772 24.2556 18.6396 23.9748 18.702C23.4289 18.8268 22.8828 18.9828 22.3525 19.1544C21.2761 19.4975 20.2154 19.8875 19.1859 20.3555C19.0611 20.4179 18.9363 20.4647 18.8115 20.5271C17.1892 17.3761 15.8633 14.0378 14.8961 10.6372C14.8961 10.6372 14.8961 10.6372 14.9117 10.6372C15.8477 10.2161 16.7992 9.85727 17.7663 9.56089C17.8443 9.87287 17.9379 10.1848 18.0783 10.4656C19.0143 12.4467 21.245 13.2423 23.85 14.147C25.7219 14.8022 27.8434 15.551 29.8245 16.8769C30.7293 17.4853 31.5248 18.1716 32.258 18.936C31.8524 23.6937 29.0289 27.7651 25.02 29.9022L24.9576 29.871ZM18.4839 31.4777C15.9568 31.4777 13.6014 30.7913 11.5579 29.6058C13.2738 27.4999 15.2705 25.5968 17.4855 23.9433L17.7975 23.7093C17.9067 23.6313 18.016 23.5533 18.1252 23.4753L18.2811 23.3661C18.2811 23.3661 18.3903 23.2881 18.4371 23.2569L18.7647 23.0386L18.9363 22.9294L19.1079 22.8202H19.139C20.6366 25.4408 22.3525 27.9367 24.2556 30.2298C22.5085 31.0409 20.543 31.4933 18.4995 31.4933L18.4839 31.4777ZM9.28037 27.6091C9.28037 27.1099 9.32718 26.6108 9.38958 26.096C9.68596 23.7405 10.5283 21.6502 11.2615 19.8095C12.291 17.2513 13.1646 15.0362 12.2911 13.0395C12.1663 12.7743 12.0259 12.5091 11.8543 12.2596C12.5874 11.7916 13.3518 11.3548 14.1629 10.9492C15.1457 14.3498 16.4716 17.6881 18.0939 20.8391C17.4232 21.1667 16.7836 21.5254 16.1284 21.8998C14.1629 23.0698 12.3222 24.4737 10.6843 26.096C10.2008 26.5796 9.73275 27.0787 9.28037 27.5935V27.6091ZM8.51603 27.2035C6.73773 25.3316 5.47426 22.9762 4.97509 20.3399C5.19348 19.6691 5.48978 18.9984 5.86415 18.3276C6.45692 17.2669 7.22131 16.2529 8.14166 15.2702C9.03082 14.3342 10.076 13.4607 11.2147 12.6651C11.3707 12.8835 11.4955 13.1019 11.5891 13.3203C11.9323 14.1002 11.979 14.9738 11.7295 16.0813C11.4955 17.1265 11.0431 18.2808 10.5439 19.4975C9.79514 21.385 8.93722 23.5221 8.62523 25.9712C8.57844 26.3768 8.53163 26.7823 8.51603 27.1879V27.2035ZM4.70983 17.7193C4.70983 14.8334 5.59905 12.1659 7.11216 9.95087C8.3289 10.45 9.28044 10.9648 10.0292 11.5108C10.2788 11.698 10.5128 11.9008 10.7156 12.0879C9.56123 12.8991 8.51608 13.7882 7.59573 14.7554C6.62859 15.7693 5.81737 16.8457 5.1934 17.9689C5.03741 18.2496 4.89708 18.5304 4.77229 18.7956C4.74109 18.4368 4.72545 18.078 4.72545 17.7193H4.70983ZM12.8526 5.14635C13.1334 6.83106 13.4922 8.51573 13.9446 10.1848C13.0398 10.6216 12.1818 11.1208 11.3551 11.6512C10.5283 10.7932 9.29602 10.0132 7.58012 9.29568C8.95284 7.51738 10.7624 6.0667 12.8526 5.14635ZM18.4839 3.94518C17.7819 5.89508 17.4856 7.47062 17.5947 8.74975C16.5964 9.04613 15.6136 9.4205 14.6465 9.85728C14.2097 8.20377 13.8353 6.51906 13.5701 4.83435C15.0989 4.25718 16.7524 3.92962 18.4839 3.92962V3.94518ZM29.0133 8.84334C28.3114 8.54696 27.5782 8.31296 26.7827 8.15697C25.5347 7.89179 24.1932 7.78257 22.7893 7.84497C21.3386 7.90737 19.8566 8.14137 18.3591 8.54695C18.3591 8.28177 18.3591 8.01658 18.3591 7.7202C18.4371 6.67506 18.7491 5.44273 19.2795 3.97641C23.1637 4.2104 26.6266 6.05109 28.9821 8.84334H29.0133ZM18.4839 0.918945C9.20241 0.918945 1.68359 8.43777 1.68359 17.7193C1.68359 27.0008 9.20241 34.5195 18.4839 34.5195C27.7654 34.5195 35.2842 27.0008 35.2842 17.7193C35.2842 8.43777 27.7654 0.918945 18.4839 0.918945Z" fill="#000000"/>
</svg>
