<svg width="24" height="24" fill="none" xmlns="http://www.w3.org/2000/svg"><path fill-rule="evenodd" clip-rule="evenodd" d="M20.227 14.955a401.72 401.72 0 013.116 3.145c.424.4.657.908.657 1.436 0 .483-.22.98-.632 1.435l-1.965 1.971a3.469 3.469 0 01-2.22 1.038c-.165.014-.331.02-.5.02-1.005 0-2.086-.228-3.428-.719-2.416-.883-4.658-2.23-7.058-4.237a25.882 25.882 0 01-5.589-6.52C1.713 11.012 1.15 9.87.721 8.703.139 7.124-.071 5.961.019 4.812a3.456 3.456 0 011.04-2.222L3.009.655C4.032-.269 5.167-.15 5.929.68c.314.284 3.13 3.086 3.13 3.086.464.46.689.937.689 1.458 0 .505-.238 1.01-.688 1.458 0 0-1.45 1.462-1.952 1.908-.163.162-.144.25-.088.417.408.928.934 1.777 1.738 2.776.407.505.822.938 1.243 1.378l.041.043.219.226c.014.015 1.19 1.248 1.895 1.815.995.798 1.877 1.346 2.861 1.77.106.033.205.053.402-.142.416-.47 1.892-1.922 1.892-1.922.897-.9 2.007-.907 2.916.005zm.114 6.927l1.94-1.944c.168-.185.219-.342.219-.402 0-.11-.071-.237-.192-.35a378.852 378.852 0 01-3.143-3.17c-.111-.113-.271-.247-.399-.247-.054 0-.205.051-.399.246-.008.006-1.428 1.401-1.855 1.884-.425.425-1.09.827-2.03.515-1.171-.506-2.16-1.113-3.265-1.998-.742-.596-1.863-1.764-2.024-1.931l-.018-.02-.214-.224-.018-.018c-.459-.479-.91-.95-1.352-1.5-.894-1.109-1.482-2.06-1.97-3.18-.275-.813-.112-1.482.463-2.05.514-.458 1.914-1.87 1.914-1.871.198-.198.25-.347.25-.4 0-.124-.133-.283-.246-.394l-.262-.26c-.7-.695-2.583-2.565-2.87-2.828-.16-.17-.288-.24-.4-.24-.054 0-.216.05-.43.243l-1.922 1.91c-.371.373-.563.778-.605 1.276-.07.918.114 1.893.615 3.258.396 1.077.924 2.142 1.767 3.567 1.4 2.326 3.179 4.4 5.264 6.14 2.261 1.892 4.363 3.155 6.611 3.977 1.355.497 2.375.681 3.293.615.498-.04.906-.232 1.278-.604z" fill="#006AC3"/></svg>