<svg xmlns="http://www.w3.org/2000/svg" viewBox="0 0 20 19.46"><defs><style>.cls-1{fill:#006ac3}</style></defs><title>print-20</title><g id="Layer_2" data-name="Layer 2"><g id="misc"><path id="print-20" class="cls-1" d="M18.53 3.23h-2.45V1.47A1.47 1.47 0 0 0 14.61 0H5.39a1.47 1.47 0 0 0-1.47 1.47v1.76H1.47A1.47 1.47 0 0 0 0 4.7v10a1.47 1.47 0 0 0 1.47 1.47h2.45V18a1.48 1.48 0 0 0 1.47 1.48h9.22A1.48 1.48 0 0 0 16.08 18v-1.84h2.44A1.47 1.47 0 0 0 20 14.69V4.7a1.47 1.47 0 0 0-1.47-1.47zM4.92 1.47A.47.47 0 0 1 5.39 1h9.23a.47.47 0 0 1 .47.47v1.76H4.92zM15.08 18a.48.48 0 0 1-.47.48H5.39a.48.48 0 0 1-.47-.48v-6.95a.48.48 0 0 1 .47-.48h9.22a.48.48 0 0 1 .47.48zM19 14.69a.47.47 0 0 1-.47.47h-2.45v-4.11a1.48 1.48 0 0 0-1.47-1.48H5.39a1.48 1.48 0 0 0-1.47 1.48v4.11H1.47a.47.47 0 0 1-.47-.47V4.7a.47.47 0 0 1 .47-.47h17.06a.47.47 0 0 1 .47.47zm-2.63-7.81a.5.5 0 0 1-.5.5h-1.72a.5.5 0 0 1 0-1h1.72a.5.5 0 0 1 .5.5zm-2.72 6.46a.5.5 0 0 1-.5.5h-6.3a.5.5 0 1 1 0-1h6.3a.5.5 0 0 1 .5.5zm0 2.36a.5.5 0 0 1-.5.5h-6.3a.5.5 0 0 1 0-1h6.3a.5.5 0 0 1 .5.5z"/></g></g></svg>