<svg width="16" height="17" viewBox="0 0 16 17" fill="none" xmlns="http://www.w3.org/2000/svg">
<path fill-rule="evenodd" clip-rule="evenodd" d="M4.321 0.5H15C15.55 0.5 16 0.95 16 1.5V12.179C16 12.729 15.55 13.179 15 13.179H4.321C3.771 13.179 3.321 12.729 3.321 12.179V1.5C3.321 0.95 3.771 0.5 4.321 0.5ZM14.6 1.9V11.779H4.721V1.9H14.6ZM12.371 16.5H0.701C0.515175 16.5003 0.33687 16.4266 0.205379 16.2953C0.0738869 16.164 0 15.9858 0 15.8V5.043C0 4.6564 0.313401 4.343 0.7 4.343C1.0866 4.343 1.4 4.6564 1.4 5.043V15.1H12.371C12.7576 15.1 13.071 15.4134 13.071 15.8C13.071 16.1866 12.7576 16.5 12.371 16.5Z" fill="#006AC3"/>
</svg>
