<svg width="16" height="17" viewBox="0 0 16 17" fill="none" xmlns="http://www.w3.org/2000/svg">
<path fill-rule="evenodd" clip-rule="evenodd" d="M13.709 4.20491L10.257 0.798907C10.0691 0.609887 9.81352 0.503696 9.547 0.503907H3C2.44772 0.503907 2 0.951622 2 1.50391V15.5039C2 16.0562 2.44772 16.5039 3 16.5039H13C13.5523 16.5039 14 16.0562 14 15.5039V4.90991C14 4.64591 13.895 4.39191 13.709 4.20491ZM12.592 4.50691H10V1.94991L12.592 4.50691ZM3 1.50391V15.5039H13V5.50691H10C9.44772 5.50691 9 5.05919 9 4.50691V1.50391H3Z" fill="#006AC3"/>
</svg>
